# xmcd
#
# Track frame offsets: 
#        150
#        23332
#        50039
#        73639
#        96557
#        122832
#        153412
#        175438
#        200278
#        242868
#
# Disc length: 3566 seconds
#
# Revision: 0
# Processed by: cddbd v1.5.2PL0 Copyright (c) Steve Scherf et al.
# Submitted via: ExactAudioCopy v1.0b4
#
DISCID=8a0dec0a
DTITLE=Joe Louis Walker and the Bosstalkers - In Concert: Ohne Filte
DYEAR=1991
DGENRE=Blues
TTITLE0=I Didn't Know
TTITLE1=This Line
TTITLE2=The Gift
TTITLE3=Moanin' News
TTITLE4=Mama Didn't Raise No Fools
TTITLE5=Little Village
TTITLE6=Riding High
TTITLE7=One Time Around
TTITLE8=Don't Know Why
TTITLE9=Hot Tamale Baby
EXTD=
EXTT0=
EXTT1=
EXTT2=
EXTT3=
EXTT4=
EXTT5=
EXTT6=
EXTT7=
EXTT8=
EXTT9=
PLAYORDER=
